<svg width="41" height="41" viewBox="0 0 41 41" fill="none" xmlns="http://www.w3.org/2000/svg">
<rect x="0.684326" y="0.93689" width="40" height="40" rx="13" fill="#E2D213"/>
<path fill-rule="evenodd" clip-rule="evenodd" d="M26.0833 12.5547C26.9071 11.7309 28.2427 11.7309 29.0665 12.5547C29.8903 13.3785 29.8903 14.7141 29.0665 15.5379L25.507 19.0974C25.4984 19.106 25.49 19.1144 25.4817 19.1227C25.2884 19.316 25.1539 19.4505 25.0031 19.5682C24.8257 19.7065 24.6338 19.8252 24.4307 19.9219C24.2581 20.0042 24.0776 20.0644 23.8182 20.1508C23.8071 20.1545 23.7958 20.1582 23.7843 20.1621L22.246 20.6749C21.8768 20.7979 21.4697 20.7018 21.1946 20.4266C20.9194 20.1515 20.8233 19.7444 20.9464 19.3752L21.4591 17.8369C21.463 17.8254 21.4667 17.8141 21.4704 17.803C21.5568 17.5436 21.617 17.3632 21.6993 17.1905C21.7961 16.9874 21.9147 16.7955 22.053 16.6181C22.1707 16.4673 22.3052 16.3328 22.4985 16.1395C22.5068 16.1312 22.5153 16.1228 22.5238 16.1142L26.0833 12.5547ZM28.1785 13.4427C27.8451 13.1094 27.3047 13.1094 26.9713 13.4427L26.861 13.553C26.8654 13.5666 26.87 13.5806 26.875 13.595C26.9434 13.7923 27.0735 14.0537 27.3205 14.3007C27.5675 14.5477 27.8289 14.6778 28.0262 14.7462C28.0406 14.7512 28.0546 14.7558 28.0682 14.7602L28.1785 14.6499C28.5118 14.3165 28.5118 13.7761 28.1785 13.4427ZM27.1189 15.7095C26.8959 15.5845 26.6596 15.4158 26.4325 15.1887C26.2054 14.9616 26.0367 14.7253 25.9117 14.5023L23.4118 17.0022C23.1839 17.2302 23.1075 17.308 23.0432 17.3905C22.961 17.4959 22.8905 17.61 22.8329 17.7307C22.788 17.8251 22.7524 17.9282 22.6505 18.234L22.4619 18.7999L22.8214 19.1593L23.3872 18.9707C23.693 18.8688 23.7961 18.8332 23.8905 18.7883C24.0112 18.7307 24.1253 18.6602 24.2307 18.578C24.3132 18.5137 24.3911 18.4373 24.619 18.2094L27.1189 15.7095Z" fill="#424300"/>
<path fill-rule="evenodd" clip-rule="evenodd" d="M20.6843 11.9369L20.6363 11.9369C18.7037 11.9369 17.1891 11.9369 16.0074 12.0957C14.7979 12.2584 13.8434 12.5977 13.0943 13.3469C12.3452 14.096 12.0058 15.0504 11.8432 16.26C11.6843 17.4417 11.6843 18.9562 11.6843 20.8889V20.9849C11.6843 22.9175 11.6843 24.4321 11.8432 25.6138C12.0058 26.8233 12.3452 27.7778 13.0943 28.5269C13.8434 29.2761 14.7979 29.6154 16.0074 29.778C17.1891 29.9369 18.7037 29.9369 20.6363 29.9369H20.7324C22.665 29.9369 24.1795 29.9369 25.3612 29.778C26.5708 29.6154 27.5252 29.2761 28.2744 28.5269C29.0235 27.7778 29.3629 26.8233 29.5255 25.6138C29.6843 24.4321 29.6843 22.9175 29.6843 20.9849V20.9369C29.6843 20.5901 29.4032 20.309 29.0564 20.309C28.7096 20.309 28.4285 20.5901 28.4285 20.9369C28.4285 22.928 28.4272 24.3581 28.2809 25.4465C28.2751 25.4894 28.2691 25.5316 28.2629 25.5732L25.9405 23.483C24.8526 22.5039 23.2325 22.4064 22.035 23.248L21.7854 23.4235C21.3693 23.7159 20.8033 23.6668 20.4437 23.3072L16.8523 19.7158C15.9017 18.7653 14.3769 18.7145 13.3652 19.5997L12.941 19.9709C12.9448 18.4704 12.9663 17.331 13.0878 16.4273C13.2317 15.357 13.5054 14.7118 13.9823 14.2349C14.4592 13.7579 15.1045 13.4843 16.1748 13.3404C17.2631 13.194 18.6933 13.1927 20.6843 13.1927C21.0311 13.1927 21.3122 12.9116 21.3122 12.5648C21.3122 12.218 21.0311 11.9369 20.6843 11.9369ZM13.0878 25.4465C13.2317 26.5167 13.5054 27.162 13.9823 27.6389C14.4592 28.1158 15.1045 28.3895 16.1748 28.5334C17.2631 28.6797 18.6933 28.6811 20.6843 28.6811C22.6754 28.6811 24.1055 28.6797 25.1939 28.5334C26.2642 28.3895 26.9094 28.1158 27.3864 27.6389C27.5902 27.435 27.757 27.2004 27.8923 26.9149C27.8598 26.895 27.8286 26.8718 27.7992 26.8454L25.1004 24.4165C24.4477 23.829 23.4756 23.7705 22.7571 24.2755L22.5075 24.4509C21.5921 25.0942 20.3468 24.9864 19.5557 24.1952L15.9643 20.6038C15.4812 20.1208 14.7063 20.095 14.1922 20.5448L12.9405 21.64C12.9426 23.2714 12.9593 24.4907 13.0878 25.4465Z" fill="#424300"/>
</svg>
